<svg xmlns="http://www.w3.org/2000/svg" width="433.651" height="298.9" viewBox="0 0 433.651 298.9">
  <g id="logo-deco" transform="translate(2)">
    <path id="Path_12" data-name="Path 12" d="M431.651,233.585S429.014,87.747,220.629,82.06-2,22.952-2,22.952V0H431.651Z" fill="#97f3fb"/>
    <path id="Path_13" data-name="Path 13" d="M431.651,233.585S429.014,87.747,220.629,82.06-2,22.952-2,22.952V0H431.651Z" fill="#97f3fb"/>
    <path id="Path_14" data-name="Path 14" d="M208.609,260.218A68.609,68.609,0,1,0,140,191.609,68.609,68.609,0,0,0,208.609,260.218Z" transform="translate(6.74 5.838)" fill="#fff"/>
    <path id="Path_15" data-name="Path 15" d="M208.6,260.083a68.48,68.48,0,1,0-68.48-68.48A68.48,68.48,0,0,0,208.6,260.083Z" transform="translate(6.746 5.844)" fill="none" stroke="#4adff6" stroke-width="1"/>
    <path id="Path_16" data-name="Path 16" d="M213.207,211.294c37.891,0,64.011-59.22,64.011-21.327A68.609,68.609,0,1,1,145.7,162.539C156.263,138.314,185.054,211.294,213.207,211.294Z" transform="translate(6.74 7.481)" fill="#97f3fb"/>
    <path id="Path_17" data-name="Path 17" d="M207.969,258.591a68.9,68.9,0,0,1-14.655-1.572,68.14,68.14,0,0,1-25.7-11.574,68.943,68.943,0,0,1-10.38-9.338,14.784,14.784,0,0,1-3.413-5.631,7.493,7.493,0,0,1,.285-5.229,11.969,11.969,0,0,1,4.679-5,35.634,35.634,0,0,1,9.511-4.018,91.78,91.78,0,0,1,14.584-2.7,191.114,191.114,0,0,1,19.888-1.069h0c48.7-1,56.714-35.823,60.137-50.692.52-2.257.93-4.039,1.367-5.3.447-1.294.88-1.9,1.363-1.9.345,0,.769.311,1.258.923a19.7,19.7,0,0,1,1.871,3.073,68.009,68.009,0,0,1,5.68,15.04,68.44,68.44,0,0,1-66.477,84.987Z" transform="translate(7.381 7.337)" fill="#d6fbff"/>
    <path id="Path_18" data-name="Path 18" d="M207.975,258.467a68.915,68.915,0,0,0,13.775-1.388,68.02,68.02,0,0,0,24.441-10.285,68.538,68.538,0,0,0,24.763-30.073,67.992,67.992,0,0,0,3.984-12.829,69,69,0,0,0-.61-30.251,67.915,67.915,0,0,0-5.671-15.011,19.659,19.659,0,0,0-1.856-3.052c-.464-.58-.854-.875-1.157-.875-.414,0-.82.592-1.241,1.81-.435,1.256-.844,3.036-1.363,5.288-3.429,14.9-11.461,49.79-60.26,50.793h0a191.155,191.155,0,0,0-19.875,1.069,91.4,91.4,0,0,0-14.563,2.7,35.442,35.442,0,0,0-9.476,4,11.839,11.839,0,0,0-4.631,4.941,7.359,7.359,0,0,0-.279,5.141,14.637,14.637,0,0,0,3.384,5.58,68.537,68.537,0,0,0,22.474,16.39,68.013,68.013,0,0,0,13.536,4.484A68.849,68.849,0,0,0,207.975,258.467Zm0,.259a68.428,68.428,0,0,1-50.83-22.527c-11.051-12.187,1.493-23.572,45.63-23.863,62.673-1.288,57.635-57.89,62.869-57.89.773,0,1.77,1.234,3.243,4.065a68.634,68.634,0,0,1-60.911,100.215Z" transform="translate(7.375 7.331)" fill="#4adff6"/>
    <path id="Path_19" data-name="Path 19" d="M214.89,211.7c57.44-1.34,45.295-70.336,54.433-50.411a68.671,68.671,0,0,1,6.147,28.632c0,34.328-24.527,62.156-54.784,62.156-16.1,0-30.572-7.876-40.588-20.409C171.271,220.627,179.647,211.962,214.89,211.7Z" transform="translate(8.489 7.484)" fill="#4adff6"/>
    <path id="Path_20" data-name="Path 20" d="M160.3,275.837h4.174l-1.535-3.417q-.134-.327-.277-.747t-.286-.951q-.123.49-.266.921t-.277.777Zm6.731,5.882-1.7-3.857H159.4l-1.739,3.857h-2.558l7.253-15.569,7.242,15.569ZM170.891,279a2.94,2.94,0,0,0,.726.655,1.422,1.422,0,0,0,.736.205,1.076,1.076,0,0,0,1-.471,3.571,3.571,0,0,0,.3-1.748V266.743h2.414v11.681a4,4,0,0,1-.839,2.8,3.442,3.442,0,0,1-2.619.89,4.113,4.113,0,0,1-1.78-.378,4.807,4.807,0,0,1-1.494-1.177Zm7.446,1.586a1.33,1.33,0,0,1,.389-.962,1.334,1.334,0,0,1,1.9,0,1.33,1.33,0,0,1,.389.962,1.281,1.281,0,0,1-.389.941,1.384,1.384,0,0,1-1.9,0A1.281,1.281,0,0,1,178.338,280.583Zm6.22,1.135V266.743h2.434v12.8h5.442v2.179Zm18.8,0h-2.22V280.46a3.7,3.7,0,0,1-3.2,1.657,4.027,4.027,0,0,1-3.243-1.4,5.846,5.846,0,0,1-1.176-3.857,5.583,5.583,0,0,1,1.208-3.744,3.925,3.925,0,0,1,3.151-1.432,3.878,3.878,0,0,1,2.025.5,2.88,2.88,0,0,1,1.238,1.422v-1.586h2.22Zm-2.159-4.879a3.536,3.536,0,0,0-.7-2.343,2.4,2.4,0,0,0-1.955-.838,2.445,2.445,0,0,0-1.984.869,4.393,4.393,0,0,0-.021,4.776,2.621,2.621,0,0,0,3.908-.071A3.625,3.625,0,0,0,201.2,276.839Zm7.375-4.818v5.463a2.89,2.89,0,0,0,.583,2.026,3.223,3.223,0,0,0,3.785,0,2.89,2.89,0,0,0,.583-2.026v-5.463h2.22v4.8a6.016,6.016,0,0,1-1.115,4.041,4.534,4.534,0,0,1-3.56,1.258,4.6,4.6,0,0,1-3.6-1.249,6,6,0,0,1-1.116-4.051v-4.8Zm10.168,9.7v-9.7h2.088v1.586a4.182,4.182,0,0,1,1.565-1.463,4.763,4.763,0,0,1,2.189-.46,4.391,4.391,0,0,1,1.84.348,2.642,2.642,0,0,1,1.2,1.013,2.776,2.776,0,0,1,.369.93,10.455,10.455,0,0,1,.112,1.862v5.882h-2.241v-4.982a4.614,4.614,0,0,0-.47-2.537,1.908,1.908,0,0,0-1.647-.634,3.254,3.254,0,0,0-1.391.286,2.316,2.316,0,0,0-.952.809,2.278,2.278,0,0,0-.348.9,11.7,11.7,0,0,0-.091,1.739v4.419Zm19.283-4.879a3.536,3.536,0,0,0-.706-2.343,2.4,2.4,0,0,0-1.953-.838,2.447,2.447,0,0,0-1.985.869,4.392,4.392,0,0,0-.021,4.776,2.643,2.643,0,0,0,3.919-.061A3.675,3.675,0,0,0,238.026,276.839Zm-.062-10.976h2.22v15.856h-2.22V280.46a3.7,3.7,0,0,1-3.2,1.657,4.024,4.024,0,0,1-3.242-1.4,5.84,5.84,0,0,1-1.176-3.857,5.588,5.588,0,0,1,1.207-3.744,3.925,3.925,0,0,1,3.151-1.432,3.878,3.878,0,0,1,2.025.5,2.87,2.87,0,0,1,1.238,1.422Zm7.508,7.7a3.17,3.17,0,0,1,.941-1.422,2.315,2.315,0,0,1,1.463-.46,3.82,3.82,0,0,1,.921.112,4.463,4.463,0,0,1,.9.328l-.8,1.882a1.928,1.928,0,0,0-.623-.3,2.438,2.438,0,0,0-.736-.1,1.662,1.662,0,0,0-1.586.889,6.622,6.622,0,0,0-.481,2.967v4.255h-2.22V272h2.22Zm7.16,12.714h-2.281l2.66-5.4-3.559-8.858h2.455l1.78,5.023q.152.46.266.942a8.726,8.726,0,0,1,.194.962,11.848,11.848,0,0,1,.635-1.627l.05-.123,2.395-5.177h2.4Z" transform="translate(7.457 12.62)" fill="#4bafbe"/>
  </g>
</svg>
